{
	"asset":{
		"generator":"Khronos glTF Blender I/O v5.0.21",
		"version":"2.0"
	},
	"scene":0,
	"scenes":[
		{
			"name":"Scene",
			"nodes":[
				0
			]
		}
	],
	"nodes":[
		{
			"mesh":0,
			"name":"Cube.006"
		}
	],
	"meshes":[
		{
			"name":"Cube.006",
			"primitives":[
				{
					"attributes":{
						"POSITION":0,
						"NORMAL":1
					},
					"indices":2
				}
			]
		}
	],
	"accessors":[
		{
			"bufferView":0,
			"componentType":5126,
			"count":1050,
			"max":[
				1.0000003576278687,
				1,
				1.0000003576278687
			],
			"min":[
				-1.000000238418579,
				-1,
				-1.000000238418579
			],
			"type":"VEC3"
		},
		{
			"bufferView":1,
			"componentType":5126,
			"count":1050,
			"type":"VEC3"
		},
		{
			"bufferView":2,
			"componentType":5123,
			"count":6288,
			"type":"SCALAR"
		}
	],
	"bufferViews":[
		{
			"buffer":0,
			"byteLength":12600,
			"byteOffset":0,
			"target":34962
		},
		{
			"buffer":0,
			"byteLength":12600,
			"byteOffset":12600,
			"target":34962
		},
		{
			"buffer":0,
			"byteLength":12576,
			"byteOffset":25200,
			"target":34963
		}
	],
	"buffers":[
		{
			"byteLength":37776,
			"uri":"Dice_BSwap.bin"
		}
	]
}
