{
	"asset":{
		"generator":"Khronos glTF Blender I/O v5.0.21",
		"version":"2.0"
	},
	"scene":0,
	"scenes":[
		{
			"name":"Scene",
			"nodes":[
				0,
				1,
				2
			]
		}
	],
	"nodes":[
		{
			"mesh":0,
			"name":"Cube",
			"rotation":[
				0.9753677845001221,
				0.22058477997779846,
				0,
				1.0694559904322887e-07
			],
			"translation":[
				0.007693842519074678,
				0.01445066835731268,
				1.0004366636276245
			]
		},
		{
			"mesh":1,
			"name":"Icosphere.000"
		},
		{
			"mesh":2,
			"name":"Cube.001"
		}
	],
	"materials":[
		{
			"doubleSided":true,
			"name":"blanco"
		},
		{
			"doubleSided":true,
			"name":"negro"
		}
	],
	"meshes":[
		{
			"name":"Cube",
			"primitives":[
				{
					"attributes":{
						"POSITION":0,
						"NORMAL":1,
						"TEXCOORD_0":2
					},
					"indices":3,
					"material":0
				},
				{
					"attributes":{
						"POSITION":4,
						"NORMAL":5,
						"TEXCOORD_0":6
					},
					"indices":7,
					"material":1
				}
			]
		},
		{
			"name":"Icosphere.008",
			"primitives":[
				{
					"attributes":{
						"POSITION":8,
						"NORMAL":9
					},
					"indices":10
				}
			]
		},
		{
			"name":"Cube.001",
			"primitives":[
				{
					"attributes":{
						"POSITION":11,
						"NORMAL":12
					},
					"indices":13
				}
			]
		}
	],
	"accessors":[
		{
			"bufferView":0,
			"componentType":5126,
			"count":11668,
			"max":[
				1.0007712841033936,
				1.0007712841033936,
				1
			],
			"min":[
				-1.0007712841033936,
				-1.0007712841033936,
				-1.0007712841033936
			],
			"type":"VEC3"
		},
		{
			"bufferView":1,
			"componentType":5126,
			"count":11668,
			"type":"VEC3"
		},
		{
			"bufferView":2,
			"componentType":5126,
			"count":11668,
			"type":"VEC2"
		},
		{
			"bufferView":3,
			"componentType":5123,
			"count":61746,
			"type":"SCALAR"
		},
		{
			"bufferView":4,
			"componentType":5126,
			"count":4070,
			"max":[
				0.9945217967033386,
				0.9945217967033386,
				0.9945217967033386
			],
			"min":[
				-0.9945217967033386,
				-0.9945217967033386,
				-0.9945217967033386
			],
			"type":"VEC3"
		},
		{
			"bufferView":5,
			"componentType":5126,
			"count":4070,
			"type":"VEC3"
		},
		{
			"bufferView":6,
			"componentType":5126,
			"count":4070,
			"type":"VEC2"
		},
		{
			"bufferView":7,
			"componentType":5123,
			"count":14544,
			"type":"SCALAR"
		},
		{
			"bufferView":8,
			"componentType":5126,
			"count":20160,
			"max":[
				1.102630853652954,
				0.21304354071617126,
				1.102630853652954
			],
			"min":[
				-1.1043120622634888,
				-4.330964088439941,
				-1.1043120622634888
			],
			"type":"VEC3"
		},
		{
			"bufferView":9,
			"componentType":5126,
			"count":20160,
			"type":"VEC3"
		},
		{
			"bufferView":10,
			"componentType":5123,
			"count":20160,
			"type":"SCALAR"
		},
		{
			"bufferView":11,
			"componentType":5126,
			"count":170,
			"max":[
				1,
				1,
				1
			],
			"min":[
				-1,
				-1,
				-1
			],
			"type":"VEC3"
		},
		{
			"bufferView":12,
			"componentType":5126,
			"count":170,
			"type":"VEC3"
		},
		{
			"bufferView":13,
			"componentType":5123,
			"count":1008,
			"type":"SCALAR"
		}
	],
	"bufferViews":[
		{
			"buffer":0,
			"byteLength":140016,
			"byteOffset":0,
			"target":34962
		},
		{
			"buffer":0,
			"byteLength":140016,
			"byteOffset":140016,
			"target":34962
		},
		{
			"buffer":0,
			"byteLength":93344,
			"byteOffset":280032,
			"target":34962
		},
		{
			"buffer":0,
			"byteLength":123492,
			"byteOffset":373376,
			"target":34963
		},
		{
			"buffer":0,
			"byteLength":48840,
			"byteOffset":496868,
			"target":34962
		},
		{
			"buffer":0,
			"byteLength":48840,
			"byteOffset":545708,
			"target":34962
		},
		{
			"buffer":0,
			"byteLength":32560,
			"byteOffset":594548,
			"target":34962
		},
		{
			"buffer":0,
			"byteLength":29088,
			"byteOffset":627108,
			"target":34963
		},
		{
			"buffer":0,
			"byteLength":241920,
			"byteOffset":656196,
			"target":34962
		},
		{
			"buffer":0,
			"byteLength":241920,
			"byteOffset":898116,
			"target":34962
		},
		{
			"buffer":0,
			"byteLength":40320,
			"byteOffset":1140036,
			"target":34963
		},
		{
			"buffer":0,
			"byteLength":2040,
			"byteOffset":1180356,
			"target":34962
		},
		{
			"buffer":0,
			"byteLength":2040,
			"byteOffset":1182396,
			"target":34962
		},
		{
			"buffer":0,
			"byteLength":2016,
			"byteOffset":1184436,
			"target":34963
		}
	],
	"buffers":[
		{
			"byteLength":1186452,
			"uri":"dado1.bin"
		}
	]
}
